<?xml version="1.0" encoding="UTF-8"?><svg xmlns="http://www.w3.org/2000/svg" viewBox="0 0 1024 1024"><g><path d="m478.92.69c-43.23,3.18-88.36,12.07-125.44,24.61-99.41,33.35-186.51,97.66-254.35,187.22-44.02,58.28-75.27,128.79-89.62,202.15C.03,463.43-2.81,533.14,3.03,575.7c21.3,158.32,103.98,287.59,237.94,371.91,22.88,14.45,65.96,35.89,90.89,45.1,58.07,21.76,113.77,31.6,177.04,31.28,57.28-.16,106.19-7.94,163.31-25.73,81.73-25.73,149.27-68.12,211.44-133.39,77.63-81.46,123.07-176.11,137.43-286.47,3.79-29.06,3.94-90.52.16-120.69-6.94-54.79-26.51-124.98-39.92-143.55-19.25-26.2-68.48-47.64-124.81-54.15-16.88-2.06-71.95-1.59-74,.48-.63.64-.32,5.72.63,11.27,4.1,21.91,1.58,88.93-4.58,120.05-6.15,31.6-22.25,85.12-35.5,117.19-33.45,81.62-97.99,174.36-164.26,236.45-25.56,23.98-36.13,32.55-60.59,50.02-48.44,34.46-93.25,58.76-131.91,71.3-6.31,1.91-11.52,4.13-11.52,4.76,0,1.91,13.1,18.9,26.04,33.67,10.1,11.59,12.78,13.82,15.62,12.86,4.89-1.59,39.76-15.56,50.65-20.49,31.24-13.97,61.7-31.92,94.36-55.42,27.14-19.53,37.4-27.95,64.22-53.2l19.72-18.58,14.2-3.65c31.56-8.26,73.69-26.2,95.15-40.65,14.67-9.69,14.67-8.1.79,10.96-50.81,68.92-112.19,125.93-179.56,166.58-53.65,32.4-99.25,50.66-156.53,63.04l-16.09,3.49-11.83-8.89c-56.17-41.76-97.51-109.89-116.13-191.51-9.15-40.34-10.26-50.82-10.26-102.43,0-43.99.32-49.23,3.79-67.97,2.21-11.12,4.26-20.17,4.89-20.17.47,0,3.63,5.56,6.94,12.23s12.94,22.39,21.46,34.62l15.62,22.55v32.4c0,32.08,1.1,44.46,5.84,67.81,4.42,22.07,12.62,48.75,19.57,64.15l2.05,4.29,15.31-7.78c23.83-12.07,64.06-38.11,77.32-50.18l5.52-5.08,26.82,13.34c14.83,7.3,27.61,13.34,28.56,13.34,1.1,0,11.36-7.62,22.88-16.99,22.41-17.94,84.89-78.92,83-80.83-.63-.64-7.42-2.86-15.31-4.76-12.15-3.18-38.66-13.5-45.6-17.94-1.74-1.11.95-4.92,11.83-17.15,31.24-34.62,53.33-63.36,81.89-106.87,33.61-50.82,54.12-89.72,72.58-137.36,16.88-43.67,20.99-57.96,34.71-122.43.95-3.97,2.37-24.3,3.79-53.04l.95-19.85,11.05-1.27c15.31-1.91,61.38-.16,80.95,2.86,30.45,4.76,65.8,17.15,88.83,30.97,6.78,4.29,11.99,6.83,11.36,5.88-11.05-19.69-47.02-65.27-71.32-90.52-28.09-29.06-56.96-52.24-93.73-75.11-57.43-35.89-129.23-62.25-193.61-71.3-29.98-4.13-79.84-6.35-104.14-4.45h0Zm95.15,39.54c6.47,1.11,7.73,3.33,2.37,4.45-2.05.32-9.63,1.91-17.04,3.33-42.13,8.26-95.46,26.68-136.64,47.32-19.09,9.53-59.17,33.98-74,45.26-34.08,25.88-76.53,67.17-102.25,99.57-15.46,19.37-37.24,51.29-49.86,72.89-36.29,62.25-61.38,139.27-69.74,213.74-2.84,25.57-2.52,90.36.63,115.92,9.63,79.56,38.97,153.56,84.57,213.43,14.99,19.85,44.18,50.34,60.91,64,14.83,12.07,51.28,37,62.48,42.56,19.72,10.16-.32,8.73-26.82-1.91-41.81-16.67-78.58-41.13-111.4-74.32-32.19-32.55-52.54-60.5-70.85-97.03-23.67-47.48-34.56-84.8-40.55-138-2.68-24.14-2.37-79.88.63-101.63,8.2-58.91,28.24-115.45,58.07-162.77l7.42-11.91.79-26.2c1.74-52.24,18.3-105.76,46.07-147.52,31.24-47,77.16-87.82,128.6-114.34,49.55-25.57,92.31-37.64,164.89-46.69,8.21-1.11,75.42-1.11,81.73-.16h0Zm85.36,44.46c1.74,4.45,1.1,4.92-8.84,6.99-16.09,3.02-44.18,10.64-60.75,16.52-57.28,19.85-102.56,44.15-151.16,80.99-44.5,33.67-95.15,87.02-128.76,135.93-50.65,73.52-89.15,168.33-100.67,248.68-6.31,43.51-7.73,102.9-3.16,141.17,2.52,21.76,1.58,23.82-3.47,8.26-18.46-56.06-23.83-149.59-12.47-216.76,11.2-65.74,37.08-131.64,73.84-187.7,24.93-37.95,43.55-60.82,75.42-92.26,43.39-42.72,76.69-66.7,129.23-93.22,51.12-25.73,111.71-43.51,167.26-49.39,19.88-2.06,22.41-2.06,23.51.79h0Zm21.3,70.03c1.1,6.83,2.68,13.97,3.47,16.04,3,7.62,1.89,9.37-6.78,11.43-30.45,7.3-80.79,29.38-112.35,49.07-36.13,22.71-58.54,40.81-85.52,68.76-47.18,49.07-71.64,87.5-88.36,138.79-4.73,14.61-8.2,26.84-7.73,27.31s1.58-1.59,2.68-4.61c2.68-8.26,17.99-37.16,25.25-48.12,46.71-69.71,107.93-122.91,187.29-162.93,31.56-15.88,85.05-35.73,88.05-32.71,1.74,1.59-2.52,43.19-6.78,65.9-14.36,79.24-52.23,161.02-114.08,245.5-47.65,65.27-99.09,121.16-153.37,166.74-32.98,27.79-71.48,54.63-78.11,54.79-1.1,0-1.58-5.24-1.1-16.2.95-28.58,5.05-58.44,8.05-58.44.63,0,6.47,5.4,12.94,11.91s12.31,11.91,13.1,11.91c3.94,0,50.18-39.54,84.73-72.73l18.15-17.31-12.62-11.75c-6.94-6.51-15.15-14.61-18.3-17.94l-5.84-6.19,5.68-9.69c9.47-16.52,32.82-50.5,46.86-67.97,25.4-32.08,72.11-76.22,102.4-97.03,5.21-3.65,16.73-10.64,25.4-15.72l15.62-9.21,8.36-25.73c8.52-26.36,16.41-53.67,15.46-53.67-2.52,0-29.82,12.86-43.23,20.33-81.73,45.58-154.32,116.24-199.76,194.85-5.05,8.73-9.78,16.52-10.57,17.31-1.74,2.22-18.93-35.25-25.4-55.42-8.99-28.11-12.31-48.59-13.25-80.99l-.79-28.58,11.36-15.88c80.47-111.79,193.76-187.22,306.27-203.9.47-.16,1.89,5.4,2.84,12.07h0Zm271.55,276.31c6.15,16.52,12.62,47,15.15,71.14,6,57.49-3.47,116.72-28.88,179.44-17.36,43.35-45.29,84.32-80.47,118.46-24.61,23.82-50.02,40.65-85.68,56.53-19.72,8.73-50.02,18.9-51.75,17.31-.47-.64,3.63-5.24,9.31-10.32,22.09-20.17,58.54-62.73,84.89-99.25,40.71-56.53,69.27-110.68,92.94-175.63,19.72-54.63,32.98-109.57,37.4-156.1.63-5.88,1.58-10.64,2.37-10.64s2.84,4.13,4.73,9.05h0Z"/></g></svg>