<?xml version="1.0" standalone="no"?>
<!DOCTYPE svg PUBLIC "-//W3C//DTD SVG 20010904//EN"
 "http://www.w3.org/TR/2001/REC-SVG-20010904/DTD/svg10.dtd">
<svg version="1.0" xmlns="http://www.w3.org/2000/svg"
 width="660.000000pt" height="660.000000pt" viewBox="0 0 660.000000 660.000000"
 preserveAspectRatio="xMidYMid meet">

<g transform="translate(0.000000,660.000000) scale(0.100000,-0.100000)"
fill="currentColor" stroke="none">
<path d="M3080 6523 c-274 -20 -560 -76 -795 -155 -630 -210 -1182 -615 -1612
-1179 -279 -367 -477 -811 -568 -1273 -60 -307 -78 -746 -41 -1014 135 -997
659 -1811 1508 -2342 145 -91 418 -226 576 -284 368 -137 721 -199 1122 -197
363 1 673 50 1035 162 518 162 946 429 1340 840 492 513 780 1109 871 1804 24
183 25 570 1 760 -44 345 -168 787 -253 904 -122 165 -434 300 -791 341 -107
13 -456 10 -469 -3 -4 -4 -2 -36 4 -71 26 -138 10 -560 -29 -756 -39 -199
-141 -536 -225 -738 -212 -514 -621 -1098 -1041 -1489 -162 -151 -229 -205
-384 -315 -307 -217 -591 -370 -836 -449 -40 -12 -73 -26 -73 -30 0 -12 83
-119 165 -212 64 -73 81 -87 99 -81 31 10 252 98 321 129 198 88 391 201 598
349 172 123 237 176 407 335 l125 117 90 23 c200 52 467 165 603 256 93 61 93
51 5 -69 -322 -434 -711 -793 -1138 -1049 -340 -204 -629 -319 -992 -397
l-102 -22 -75 56 c-356 263 -618 692 -736 1206 -58 254 -65 320 -65 645 0 277
2 310 24 428 14 70 27 127 31 127 3 0 23 -35 44 -77 21 -42 82 -141 136 -218
l99 -142 0 -204 c0 -202 7 -280 37 -427 28 -139 80 -307 124 -404 l13 -27 97
49 c151 76 406 240 490 316 l35 32 170 -84 c94 -46 175 -84 181 -84 7 0 72 48
145 107 142 113 538 497 526 509 -4 4 -47 18 -97 30 -77 20 -245 85 -289 113
-11 7 6 31 75 108 198 218 338 399 519 673 213 320 343 565 460 865 107 275
133 365 220 771 6 25 15 153 24 334 l6 125 70 8 c97 12 389 1 513 -18 193 -30
417 -108 563 -195 43 -27 76 -43 72 -37 -70 124 -298 411 -452 570 -178 183
-361 329 -594 473 -364 226 -819 392 -1227 449 -190 26 -506 40 -660 28z m603
-249 c41 -7 49 -21 15 -28 -13 -2 -61 -12 -108 -21 -267 -52 -605 -168 -866
-298 -121 -60 -375 -214 -469 -285 -216 -163 -485 -423 -648 -627 -98 -122
-236 -323 -316 -459 -230 -392 -389 -877 -442 -1346 -18 -161 -16 -569 4 -730
61 -501 247 -967 536 -1344 95 -125 280 -317 386 -403 94 -76 325 -233 396
-268 125 -64 -2 -55 -170 12 -265 105 -498 259 -706 468 -204 205 -333 381
-449 611 -150 299 -219 534 -257 869 -17 152 -15 503 4 640 52 371 179 727
368 1025 l47 75 5 165 c11 329 116 666 292 929 198 296 489 553 815 720 314
161 585 237 1045 294 52 7 478 7 518 1z m541 -280 c11 -28 7 -31 -56 -44 -102
-19 -280 -67 -385 -104 -363 -125 -650 -278 -958 -510 -282 -212 -603 -548
-816 -856 -321 -463 -565 -1060 -638 -1566 -40 -274 -49 -648 -20 -889 16
-137 10 -150 -22 -52 -117 353 -151 942 -79 1365 71 414 235 829 468 1182 158
239 276 383 478 581 275 269 486 420 819 587 324 162 708 274 1060 311 126 13
142 13 149 -5z m135 -441 c7 -43 17 -88 22 -101 19 -48 12 -59 -43 -72 -193
-46 -512 -185 -712 -309 -229 -143 -371 -257 -542 -433 -299 -309 -454 -551
-560 -874 -30 -92 -52 -169 -49 -172 3 -3 10 10 17 29 17 52 114 234 160 303
296 439 684 774 1187 1026 200 100 539 225 558 206 11 -10 -16 -272 -43 -415
-91 -499 -331 -1014 -723 -1546 -302 -411 -628 -763 -972 -1050 -209 -175
-453 -344 -495 -345 -7 0 -10 33 -7 102 6 180 32 368 51 368 4 0 41 -34 82
-75 41 -41 78 -75 83 -75 25 0 318 249 537 458 l115 109 -80 74 c-44 41 -96
92 -116 113 l-37 39 36 61 c60 104 208 318 297 428 161 202 457 480 649 611
33 23 106 67 161 99 l99 58 53 162 c54 166 104 338 98 338 -16 0 -189 -81
-274 -128 -518 -287 -978 -732 -1266 -1227 -32 -55 -62 -104 -67 -109 -11 -14
-120 222 -161 349 -57 177 -78 306 -84 510 l-5 180 72 100 c510 704 1228 1179
1941 1284 3 1 12 -34 18 -76z m1721 -1740 c39 -104 80 -296 96 -448 38 -362
-22 -735 -183 -1130 -110 -273 -287 -531 -510 -746 -156 -150 -317 -256 -543
-356 -125 -55 -317 -119 -328 -109 -3 4 23 33 59 65 140 127 371 395 538 625
258 356 439 697 589 1106 125 344 209 690 237 983 4 37 10 67 15 67 5 0 18
-26 30 -57z"/>
</g>
</svg>
