<svg version="1.1" id="Layer_1" xmlns="http://www.w3.org/2000/svg" xmlns:xlink="http://www.w3.org/1999/xlink" x="0px" y="0px"
	 width="100%" viewBox="0 0 1024 1024" enable-background="new 0 0 1024 1024" xml:space="preserve">
<path fill="#000000" opacity="1.000000" stroke="none" 
	d="
M578.745178,563.701660 
	C567.801575,577.595520 556.964233,591.109192 545.086243,603.752197 
	C541.349976,607.729126 541.616577,608.977173 546.469971,611.452698 
	C555.880371,616.252441 565.829773,619.488770 576.162476,621.590515 
	C577.772827,621.918091 579.518066,621.905151 580.973022,624.249512 
	C577.055847,628.580078 573.016479,633.126343 568.890747,637.592712 
	C552.553467,655.279053 534.005249,670.488037 515.233765,685.449097 
	C513.621216,686.734314 512.271484,687.019287 510.275452,686.089661 
	C500.463257,681.519958 490.414307,677.422852 481.155060,671.758240 
	C478.356110,670.045837 476.563477,670.645630 474.121521,672.594543 
	C455.840881,687.184570 436.229248,699.667114 415.196259,709.385376 
	C412.928864,708.606445 412.727661,706.754150 412.118195,705.299683 
	C399.421356,674.999756 393.802032,643.519226 396.560211,610.681335 
	C396.965118,605.860535 396.127899,601.777161 393.000519,597.703857 
	C385.288879,587.659729 378.256134,577.113281 372.533051,565.758667 
	C371.959503,564.620728 371.579987,563.218506 369.699310,562.692383 
	C366.967041,565.801086 367.006470,569.964294 366.493835,573.666504 
	C363.421234,595.855957 363.391022,618.126465 365.094604,640.448059 
	C366.983734,665.200195 372.822784,689.045044 381.413086,712.219360 
	C394.276825,746.922180 415.008484,775.967041 444.339539,798.813904 
	C449.402557,802.757629 454.152954,803.636780 460.387787,802.373962 
	C519.129944,790.476013 569.199463,761.934998 614.073425,723.167297 
	C637.275024,703.122986 657.385193,680.304932 675.557678,655.700562 
	C676.147949,654.901367 676.671326,654.047546 677.160706,653.182251 
	C677.305359,652.926453 677.226196,652.544006 677.252258,652.183655 
	C676.001465,651.142029 675.087830,652.223083 674.174988,652.754517 
	C653.897949,664.559753 632.494751,673.580933 609.578674,678.827393 
	C606.866699,679.448242 604.772217,680.728943 602.792114,682.666626 
	C574.895447,709.965881 544.271729,733.635925 509.639557,751.845520 
	C494.140533,759.994873 477.945526,766.610840 461.479828,772.557373 
	C459.533783,773.260193 457.639038,773.834717 455.933868,772.046387 
	C447.646790,763.354675 439.835327,754.266541 432.968384,744.397705 
	C432.620911,743.898315 432.600403,743.171448 432.582214,743.106018 
	C559.594971,693.368774 637.539124,598.794250 682.116821,473.019867 
	C682.763367,480.447754 685.118286,487.892090 680.235962,494.585663 
	C675.948608,500.463409 674.916443,506.692505 677.426208,513.472656 
	C679.947021,520.282959 681.284485,527.131592 680.026978,534.482727 
	C679.327759,538.570068 679.973267,542.800598 681.235962,546.835388 
	C681.751709,548.483521 682.482788,550.159912 684.398987,550.288879 
	C686.274109,550.415222 686.626343,548.540710 687.257812,547.248413 
	C700.344177,520.466553 709.326233,492.302032 715.576416,463.212311 
	C721.162415,437.214569 723.671021,410.945221 722.642578,384.360443 
	C722.563232,382.308990 723.413513,379.700623 720.798706,378.631439 
	C718.414001,377.656372 716.242310,378.772888 714.348267,380.296539 
	C708.980835,384.614349 702.256714,387.289093 698.872620,394.017609 
	C697.546631,396.654053 695.265991,396.064270 694.008850,393.426941 
	C692.985535,391.280243 692.922729,388.911346 692.925354,386.566589 
	C692.935242,377.732910 692.854004,368.899689 691.082581,360.198334 
	C690.518372,357.427185 691.527649,356.009064 694.251343,355.790283 
	C730.710449,352.861847 766.072510,356.093475 799.032837,373.798676 
	C813.067810,381.337799 822.494507,392.112946 827.590332,407.470947 
	C836.427612,434.105072 842.803650,461.123230 845.475464,489.113342 
	C850.410583,540.814819 843.485535,590.736389 823.962341,638.820068 
	C809.194824,675.190979 787.734497,707.255798 761.014038,736.010742 
	C734.767151,764.255859 705.048828,787.853699 670.542419,805.071655 
	C634.295898,823.157898 595.771606,833.758911 555.556702,838.422791 
	C519.163513,842.643433 483.029175,840.880005 447.307770,833.091492 
	C417.207153,826.528564 388.682770,815.485779 361.754364,800.392761 
	C301.724762,766.746826 255.876007,719.533569 225.702942,657.559692 
	C209.905136,625.111938 200.019867,590.691467 196.057236,554.878296 
	C193.309799,530.047974 193.825867,505.037994 196.507034,480.094421 
	C200.609787,441.925385 210.987991,405.598694 228.727737,371.618988 
	C252.773727,325.559875 286.004120,287.085449 327.558960,255.907349 
	C369.635345,224.337936 416.701752,204.257324 468.641357,195.856125 
	C495.223694,191.556458 521.980835,191.587509 548.779175,193.583893 
	C592.308228,196.826599 633.037048,209.608856 671.430725,229.966187 
	C712.662476,251.828323 747.565857,281.256683 775.711182,318.613007 
	C781.629639,326.468475 787.668457,334.222717 792.833679,342.603607 
	C794.030762,344.546021 795.557495,346.411133 795.533264,348.938690 
	C793.719360,350.150421 792.742920,348.533173 791.626038,347.780182 
	C770.885925,333.797394 747.822021,326.371582 723.181641,323.206238 
	C708.257996,321.289124 693.362244,320.765442 678.341553,322.099213 
	C673.650513,322.515808 671.956543,324.163086 671.735291,328.666656 
	C671.172180,340.124542 671.249756,351.616882 669.508240,363.015289 
	C661.316895,416.628174 641.961365,466.057922 613.760620,512.173340 
	C602.979248,529.803772 591.325684,546.854004 578.745178,563.701660 
M492.431671,346.955750 
	C467.363068,368.181122 445.666870,392.464569 426.784454,419.304932 
	C425.553864,421.054199 425.306549,422.990387 425.351044,425.008911 
	C425.574677,435.153625 425.008240,445.279205 426.109680,455.449249 
	C428.582428,478.281464 435.629181,499.598419 446.023804,519.926147 
	C446.740204,521.327148 447.269318,523.117981 450.053772,523.108826 
	C467.949127,490.973724 490.554047,462.064697 518.098938,437.243195 
	C545.492371,412.558258 575.549133,391.923950 610.004395,378.349823 
	C611.457642,380.842987 610.612854,382.080231 610.290222,383.304657 
	C606.597595,397.319885 601.934021,411.034058 597.481506,424.816925 
	C596.261108,428.594574 594.148682,430.986206 590.746765,432.896515 
	C541.837585,460.360382 504.980957,499.929718 476.125153,547.461975 
	C471.258118,555.479187 471.355713,555.623840 477.960327,561.984497 
	C483.323853,567.149963 488.831543,572.165710 494.489502,577.447876 
	C493.015747,579.159546 491.929047,580.629211 490.638123,581.889771 
	C472.991089,599.121521 455.057831,616.037415 435.485199,631.109619 
	C428.834778,636.230896 428.870178,636.109863 422.585541,630.245056 
	C419.296143,627.175354 416.450073,623.443420 412.258636,621.565063 
	C409.909821,624.479797 410.365723,627.480652 409.905304,630.218689 
	C408.275421,639.911072 407.443176,649.685608 407.342468,659.519958 
	C407.301331,663.536316 409.369446,664.512817 412.835480,663.353149 
	C414.085907,662.934875 415.292450,662.292419 416.407928,661.578674 
	C424.970337,656.099487 433.385223,650.400574 441.418793,644.165283 
	C483.307037,611.653259 519.248596,573.397156 550.875122,530.951721 
	C569.336487,506.175018 586.098145,480.324036 599.452393,452.439392 
	C614.637024,420.732727 625.729980,387.683838 629.341125,352.493774 
	C630.026794,345.811707 631.733948,339.066101 629.883484,331.260590 
	C587.888550,342.756989 550.541138,362.460846 516.978943,389.465179 
	C483.510712,416.393860 456.484100,448.585632 438.845886,489.345703 
	C437.481506,486.038483 438.571533,484.544312 438.955017,483.005157 
	C447.274323,449.617981 464.179016,421.066467 486.745758,395.267212 
	C523.504211,353.243408 568.276794,324.100372 621.774536,308.290222 
	C629.793152,305.920502 630.149597,305.907349 628.670959,297.446289 
	C625.933838,281.784393 628.271057,282.632568 612.596191,285.930084 
	C567.378052,295.442474 528.386108,317.489380 492.431671,346.955750 
M439.958496,233.474350 
	C400.057465,247.430954 365.155487,268.852905 337.419678,301.297058 
	C309.532318,333.918457 294.619385,371.595917 293.435486,414.391510 
	C293.143707,424.939545 291.804779,434.395355 285.092682,442.776672 
	C283.034454,445.346771 281.622498,448.456848 280.056183,451.395142 
	C256.669739,495.267181 246.973923,541.955200 249.983963,591.616638 
	C251.965149,624.303345 259.172241,655.444763 273.544373,684.840515 
	C299.195648,737.305969 337.829773,776.322815 392.416931,798.544800 
	C398.066406,800.844666 403.703857,803.733704 411.143433,803.523560 
	C405.020935,799.721069 399.800781,796.488037 394.589355,793.240906 
	C350.802795,765.958374 319.222870,728.042908 298.178223,681.292297 
	C273.659119,626.823120 268.617371,569.611328 277.135925,511.139679 
	C283.255249,469.136139 296.870148,429.420471 318.094330,392.418976 
	C343.069489,348.878082 375.388275,311.705109 415.509064,281.729309 
	C452.935791,253.766327 494.999237,235.229080 540.565247,224.755371 
	C546.893982,223.300659 553.232605,221.888916 559.566650,220.457291 
	C518.956787,216.473236 479.448212,221.419525 439.958496,233.474350 
M335.683502,518.374817 
	C344.632629,486.489960 356.926331,455.988403 373.498199,427.272644 
	C400.491211,380.499146 435.068115,340.469421 478.741241,308.418335 
	C511.192169,284.603027 546.650696,267.055511 585.397461,256.208649 
	C594.790894,253.579010 604.326599,251.457825 613.849670,249.089706 
	C613.815674,245.430527 611.683960,245.367279 609.101074,245.589569 
	C588.836060,247.333405 568.936218,250.790863 549.266235,256.196655 
	C513.021912,266.157471 479.562012,281.968933 449.237854,303.903870 
	C409.011292,333.001770 376.665588,369.499146 352.083893,412.677338 
	C327.419464,456.000854 314.259399,502.716431 312.384949,552.514587 
	C311.455505,577.207336 313.686249,601.723572 318.367584,625.985962 
	C320.206879,635.518799 322.328796,645.009766 326.514587,653.937439 
	C323.825470,633.983093 324.502991,613.981140 324.713165,594.015686 
	C324.980560,568.613342 328.526062,543.630737 335.683502,518.374817 
M788.586914,509.951355 
	C781.611023,541.981628 770.724792,572.721252 756.839050,602.324158 
	C733.111877,652.908142 700.625732,697.367004 661.027405,736.702576 
	C659.491455,738.228333 657.234863,739.368835 656.953125,742.053162 
	C657.676758,742.271179 658.168396,742.588440 658.593262,742.515747 
	C659.897766,742.292664 661.194885,741.980225 662.463013,741.596985 
	C713.240967,726.255371 751.391724,694.914978 777.622742,649.219971 
	C801.127136,608.274719 812.248596,564.012085 809.546875,516.678833 
	C808.578552,499.715210 805.876221,482.942688 799.980225,466.856537 
	C799.397644,465.267273 799.235718,463.307343 796.487183,462.742554 
	C794.536743,478.527191 792.426331,493.966248 788.586914,509.951355 
M715.674255,592.182983 
	C722.609497,579.068542 728.445007,565.506104 733.559143,551.555054 
	C744.999695,520.345642 753.200256,488.375275 757.447388,455.418518 
	C758.143555,450.016083 758.885681,444.516724 757.971802,439.010864 
	C757.140747,434.004089 754.695984,430.430267 749.611877,428.875946 
	C744.416443,427.287598 741.425842,430.595459 738.562927,433.825531 
	C734.809570,438.060303 733.350891,443.356873 732.166809,448.797852 
	C726.292175,475.792969 719.730286,502.566376 709.723816,528.439575 
	C703.406738,544.773315 695.565857,560.369141 688.281189,576.232971 
	C685.668762,581.922058 687.313110,586.606567 689.996094,591.268616 
	C691.382507,593.677551 693.416931,595.793884 695.451233,597.735840 
	C704.292175,606.175720 707.968750,605.588379 714.044861,594.973206 
	C714.458435,594.250671 714.894348,593.540955 715.674255,592.182983 
M400.841553,548.024109 
	C404.978149,549.380798 409.151642,549.299072 414.180176,548.643311 
	C408.072174,537.664490 403.615326,526.583069 398.365753,515.463196 
	C394.072357,519.674927 393.144562,524.294006 391.938995,528.765198 
	C389.490875,537.844910 391.823517,543.212769 400.841553,548.024109 
z"/>
</svg>