<?xml version="1.0" standalone="no"?>
<!DOCTYPE svg PUBLIC "-//W3C//DTD SVG 20010904//EN"
 "http://www.w3.org/TR/2001/REC-SVG-20010904/DTD/svg10.dtd">
<svg version="1.0" xmlns="http://www.w3.org/2000/svg"
 width="700.000000pt" height="700.000000pt" viewBox="0 0 700.000000 700.000000"
 preserveAspectRatio="xMidYMid meet">
<metadata>
Created by potrace 1.14, written by Peter Selinger 2001-2017
</metadata>
<g transform="translate(0.000000,700.000000) scale(0.100000,-0.100000)"
fill="#000000" stroke="none">
<path d="M3417 5684 c-1 -1 -39 -4 -83 -8 -200 -15 -471 -86 -664 -173 -274
-123 -473 -263 -705 -497 -207 -209 -360 -434 -473 -701 -29 -68 -86 -238 -96
-286 -5 -24 -9 -44 -20 -89 -7 -32 -14 -74 -22 -130 -3 -25 -8 -56 -11 -70 -3
-14 -7 -124 -9 -245 -3 -229 3 -306 42 -492 52 -253 165 -520 315 -746 212
-318 515 -585 864 -761 153 -76 348 -149 465 -172 14 -3 45 -10 70 -15 201
-46 588 -58 765 -23 11 2 40 7 65 10 64 8 272 58 360 87 336 109 608 280 870
545 359 365 566 783 626 1272 11 85 11 404 1 500 -22 201 -105 516 -160 608
-18 30 -53 72 -79 93 -57 48 -188 111 -288 138 -127 35 -196 43 -355 43 -153
1 -175 -4 -169 -35 2 -12 6 -66 8 -119 6 -127 17 -145 58 -93 28 36 103 85
129 85 l22 0 -6 -177 c-3 -98 -8 -189 -11 -203 -3 -14 -8 -43 -11 -65 -21
-164 -103 -450 -178 -617 -49 -110 -52 -115 -71 -99 -12 10 -16 33 -16 99 0
52 -7 106 -17 139 -17 53 -16 54 7 106 25 55 39 147 22 147 -5 0 -20 -28 -32
-62 -24 -65 -28 -75 -100 -238 -38 -85 -70 -149 -147 -289 -99 -180 -272 -409
-438 -580 -253 -261 -554 -465 -905 -617 -36 -15 -69 -31 -74 -35 -9 -8 82
-127 136 -180 l30 -28 71 25 c117 41 364 166 477 241 126 84 245 177 359 281
106 97 103 95 186 117 96 25 203 68 307 122 49 25 91 43 94 41 6 -7 -55 -86
-158 -205 -352 -408 -793 -692 -1238 -797 -123 -30 -146 -28 -197 9 -70 52
-219 210 -273 289 -100 149 -186 359 -230 563 -29 135 -32 159 -35 383 -3 191
9 347 28 367 8 8 26 -15 53 -66 11 -20 45 -74 76 -120 l57 -83 0 -137 c0 -75
3 -158 6 -186 14 -114 87 -368 115 -399 15 -16 233 111 390 228 l45 34 109
-54 c110 -55 149 -64 163 -41 4 7 33 32 63 55 164 130 381 345 364 362 -5 5
-22 11 -37 14 -70 12 -217 72 -217 88 0 5 47 64 104 131 275 324 503 695 618
1007 47 128 75 212 82 246 3 10 11 45 20 77 8 32 18 77 21 100 4 23 8 44 10
47 3 5 6 28 20 145 1 11 3 54 4 95 1 84 7 98 42 106 30 6 235 6 269 0 14 -3
48 -7 75 -11 142 -17 363 -101 443 -167 7 -6 15 -9 17 -6 19 19 -176 278 -320
423 -168 170 -333 293 -535 397 -101 52 -209 101 -220 100 -3 0 -9 3 -15 8
-11 8 -176 62 -245 79 -108 28 -244 50 -345 57 -81 6 -333 12 -338 8z m388
-192 c-3 -3 -11 -7 -18 -8 -7 -2 -25 -6 -42 -9 -95 -19 -243 -62 -350 -101
-584 -215 -1083 -698 -1339 -1297 -133 -312 -185 -585 -181 -947 4 -362 69
-621 227 -913 152 -279 335 -474 618 -653 129 -82 63 -71 -137 23 -230 107
-450 304 -603 538 -209 321 -299 692 -267 1100 9 107 15 158 27 205 5 19 12
50 15 68 17 102 124 365 190 467 43 67 54 104 60 200 20 300 96 512 261 725
187 242 491 444 799 530 76 21 92 25 150 36 17 3 48 9 70 14 22 5 69 12 105
16 36 3 66 8 68 9 7 6 353 3 347 -3z m385 -184 c0 -9 -36 -22 -97 -37 -379
-92 -716 -269 -1007 -531 -416 -373 -713 -890 -826 -1434 -32 -150 -35 -198
-35 -488 0 -147 -3 -261 -7 -253 -10 16 -35 117 -42 165 -3 19 -10 59 -16 89
-23 120 -30 369 -16 534 4 43 18 135 32 205 117 586 512 1140 1040 1458 84 51
245 134 260 134 2 0 23 9 47 19 123 56 357 118 522 137 28 4 51 7 52 8 1 0 22
2 47 4 33 2 46 -1 46 -10z m91 -269 c6 -12 11 -46 12 -76 l2 -55 -110 -37
c-308 -104 -555 -260 -776 -487 -147 -153 -246 -289 -318 -439 -38 -79 -101
-266 -94 -278 3 -4 20 23 38 61 200 418 653 800 1148 969 54 18 106 33 114 33
14 0 15 -12 9 -82 -6 -80 -8 -100 -22 -178 -4 -19 -8 -44 -10 -55 -13 -87 -81
-291 -144 -436 -188 -428 -588 -943 -1005 -1294 -107 -90 -296 -225 -315 -225
-17 0 -28 35 -25 80 11 131 24 210 34 210 4 0 30 -20 57 -45 27 -25 54 -45 60
-45 6 0 58 39 115 86 112 94 122 102 248 224 l83 81 -76 72 c-42 40 -76 77
-76 83 0 5 25 50 56 100 185 292 432 541 694 700 36 21 72 46 81 54 9 8 33 65
52 125 60 189 67 214 55 221 -15 10 -227 -98 -338 -172 -300 -200 -537 -448
-729 -766 -12 -21 -28 -38 -35 -38 -17 0 -68 117 -105 238 -41 132 -43 146
-48 309 -6 163 -16 136 116 303 295 372 696 646 1096 750 134 35 141 35 156 9z
m874 -994 c23 -22 28 -38 28 -85 0 -25 -14 -154 -18 -160 -2 -3 -6 -23 -9 -45
-12 -77 -28 -151 -53 -240 -14 -49 -26 -97 -28 -105 -10 -42 -84 -244 -117
-320 -72 -162 -115 -224 -146 -213 -57 21 -116 94 -114 142 0 15 18 65 40 111
120 256 179 426 246 711 30 127 43 163 67 192 36 44 69 48 104 12z m319 -248
c7 -18 23 -84 36 -147 34 -172 32 -412 -5 -592 -30 -149 -113 -372 -167 -450
-11 -16 -17 -28 -14 -28 3 0 -7 -19 -22 -43 -154 -243 -333 -409 -560 -520
-96 -48 -237 -99 -246 -90 -3 3 33 46 79 95 346 363 577 740 732 1193 63 185
129 480 132 593 1 32 19 27 35 -11z m-2697 -437 l51 -110 -44 0 c-58 0 -104
39 -108 92 -3 34 29 128 43 128 4 0 30 -49 58 -110z"/>
</g>
</svg>
