<?xml version="1.0" standalone="no"?>
<!DOCTYPE svg PUBLIC "-//W3C//DTD SVG 20010904//EN"
 "http://www.w3.org/TR/2001/REC-SVG-20010904/DTD/svg10.dtd">
<svg version="1.0" xmlns="http://www.w3.org/2000/svg"
 width="700.000000pt" height="700.000000pt" viewBox="0 0 700.000000 700.000000"
 preserveAspectRatio="xMidYMid meet">
<metadata>
Created by potrace 1.14, written by Peter Selinger 2001-2017
</metadata>
<g transform="translate(0.000000,700.000000) scale(0.100000,-0.100000)"
fill="#000000" stroke="none">
<path d="M3249 6996 c-2 -2 -33 -7 -69 -10 -137 -13 -210 -24 -420 -65 -395
-78 -884 -296 -1245 -555 -319 -229 -605 -511 -844 -831 -45 -60 -86 -115 -90
-121 -5 -6 -44 -68 -85 -138 -88 -144 -169 -303 -221 -432 -20 -49 -42 -102
-49 -119 -16 -36 -77 -222 -105 -320 -38 -133 -72 -316 -96 -510 -26 -221 -27
-684 -1 -855 76 -506 227 -943 461 -1336 253 -424 573 -768 995 -1069 65 -46
131 -91 146 -99 16 -9 52 -31 79 -48 110 -68 340 -180 550 -269 79 -33 354
-118 440 -135 11 -2 31 -6 45 -10 14 -3 37 -7 51 -9 14 -3 47 -9 72 -14 25 -6
69 -13 99 -16 29 -4 59 -8 65 -10 81 -26 722 -26 877 0 11 2 41 6 66 9 127 14
285 47 465 97 624 171 1086 439 1540 894 476 476 775 999 930 1625 18 74 36
155 40 180 4 25 9 54 11 65 32 162 41 313 39 620 -3 261 -11 385 -35 495 -5
25 -12 56 -14 70 -13 79 -19 108 -26 135 -5 17 -11 42 -14 57 -19 115 -109
403 -158 507 -88 189 -336 331 -728 418 -100 21 -223 31 -410 32 -118 0 -226
-2 -239 -6 -23 -6 -23 -8 -16 -77 14 -137 8 -549 -10 -657 -2 -13 -7 -51 -10
-84 -15 -143 -131 -559 -224 -800 -110 -286 -279 -606 -470 -885 -67 -98 -246
-340 -278 -375 -10 -11 -52 -61 -93 -110 -41 -50 -138 -153 -215 -230 -126
-126 -164 -162 -286 -270 -154 -136 -521 -377 -769 -507 -89 -46 -277 -127
-345 -148 -22 -7 -52 -19 -67 -27 l-28 -13 31 -43 c59 -82 192 -238 219 -257
l28 -20 154 61 c309 122 556 257 833 454 73 52 139 100 146 107 8 7 32 26 54
43 37 27 202 172 251 220 136 133 120 123 267 165 220 63 459 167 615 266 80
52 89 44 35 -33 -48 -70 -169 -224 -258 -329 -81 -95 -392 -404 -490 -485
-377 -314 -781 -548 -1180 -686 -96 -33 -253 -79 -305 -89 -14 -2 -31 -7 -39
-9 -7 -3 -47 -12 -88 -21 -85 -17 -75 -22 -218 95 -324 264 -571 665 -700
1135 -87 319 -103 456 -100 866 2 173 5 329 9 345 4 17 14 66 22 110 9 44 19
86 23 92 4 8 20 -13 41 -54 19 -37 85 -143 147 -235 l112 -168 5 -253 c2 -138
7 -259 10 -267 2 -8 7 -33 10 -55 16 -127 60 -301 112 -442 20 -54 38 -106 41
-115 8 -25 22 -23 100 18 187 101 453 271 533 343 25 22 48 41 51 41 4 0 85
-38 180 -84 96 -46 181 -86 191 -89 16 -6 179 118 292 221 127 117 436 428
436 440 0 6 -6 12 -14 12 -25 0 -259 81 -334 116 -56 25 -71 37 -65 48 4 8 60
74 123 146 95 110 174 206 263 320 90 115 308 440 417 620 102 170 243 452
301 604 11 28 24 60 29 71 59 122 171 495 204 675 2 14 11 54 20 90 23 96 28
147 41 412 9 170 7 161 46 170 34 8 314 10 399 4 163 -13 207 -19 307 -42 167
-39 361 -112 484 -185 39 -22 73 -38 76 -36 8 9 -165 251 -260 364 -308 366
-567 589 -932 805 -324 192 -821 378 -1130 422 -22 3 -51 8 -65 11 -55 12 -71
14 -142 20 -40 4 -89 9 -108 11 -48 6 -536 14 -541 10z m697 -280 c23 -17 20
-19 -76 -36 -36 -7 -75 -14 -86 -16 -118 -22 -479 -134 -609 -189 -16 -7 -55
-23 -85 -35 -109 -44 -308 -147 -414 -213 -11 -7 -69 -43 -130 -81 -127 -79
-189 -125 -336 -251 -479 -409 -850 -918 -1079 -1474 -110 -266 -211 -633
-246 -888 -3 -23 -8 -57 -10 -75 -25 -181 -24 -730 1 -888 53 -336 117 -567
229 -826 103 -240 249 -481 400 -664 100 -120 299 -320 390 -392 86 -67 334
-235 404 -273 94 -52 29 -56 -117 -9 -112 37 -361 162 -477 240 -261 175 -533
454 -707 724 -200 310 -362 742 -394 1051 -3 35 -8 67 -11 71 -15 26 -22 492
-10 658 28 379 176 824 394 1186 l61 100 6 145 c9 191 15 249 43 374 89 407
257 710 562 1016 352 351 801 585 1321 689 142 28 167 33 262 45 25 4 68 10
95 14 26 4 172 8 324 9 223 1 279 -1 295 -12z m557 -285 c4 -1 7 -10 7 -21 0
-21 3 -20 -185 -65 -359 -88 -712 -236 -1028 -434 -335 -208 -604 -443 -922
-802 -17 -19 -72 -88 -124 -153 -421 -540 -732 -1259 -821 -1896 -28 -198 -34
-308 -35 -570 0 -209 4 -305 20 -459 3 -26 1 -41 -4 -35 -11 12 -46 121 -66
209 -9 39 -19 81 -22 95 -3 14 -7 36 -9 50 -1 14 -7 52 -13 85 -27 155 -36
300 -36 575 0 274 13 434 50 610 3 14 7 34 9 45 12 64 62 245 92 340 197 604
563 1154 1070 1602 218 194 436 339 721 482 351 176 773 300 1143 337 36 3 66
7 67 8 2 2 67 0 86 -3z m142 -448 c4 -21 15 -74 26 -117 10 -44 16 -83 11 -88
-4 -4 -75 -29 -157 -56 -473 -155 -881 -404 -1219 -747 -381 -386 -537 -647
-683 -1145 -2 -8 24 41 59 110 81 160 125 231 217 355 314 425 704 747 1206
997 187 94 512 218 569 218 27 0 27 -1 22 -52 -3 -29 -8 -87 -11 -128 -17
-193 -78 -488 -143 -685 -189 -574 -573 -1197 -1107 -1801 -92 -104 -424 -437
-500 -502 -33 -28 -71 -61 -85 -73 -206 -180 -545 -417 -566 -397 -23 24 19
486 46 503 3 2 44 -32 89 -76 46 -43 88 -79 93 -79 27 0 284 216 507 426 42
40 103 97 136 127 l59 56 -122 119 c-67 65 -122 123 -122 130 0 29 225 367
344 517 226 284 566 592 826 749 25 15 72 44 105 65 l60 38 34 104 c65 205
110 355 119 395 l9 42 -36 -15 c-20 -8 -85 -40 -145 -70 -389 -193 -772 -490
-1075 -833 -41 -47 -78 -87 -81 -90 -4 -3 -26 -32 -51 -65 -24 -33 -46 -62
-50 -65 -18 -16 -140 -199 -210 -315 -45 -74 -86 -135 -90 -135 -17 0 -131
252 -170 374 -66 204 -81 309 -93 644 l-4 102 66 93 c217 303 494 594 779 816
290 225 640 412 958 510 123 38 299 79 342 80 29 1 33 -2 38 -36z m1864 -1930
c45 -122 93 -358 107 -523 30 -360 -21 -697 -162 -1088 -48 -131 -150 -354
-165 -360 -5 -2 -9 -8 -9 -13 0 -17 -81 -140 -169 -259 -105 -140 -302 -341
-433 -438 -53 -40 -98 -72 -101 -72 -3 0 -36 -19 -73 -42 -97 -59 -298 -148
-434 -193 -136 -45 -124 -41 -130 -34 -3 4 56 70 130 147 164 171 155 161 271
302 221 270 396 525 559 815 237 420 466 1086 535 1550 7 45 35 257 35 262 0
2 4 3 9 3 5 0 18 -26 30 -57z"/>
</g>
</svg>
